<svg xmlns:dc="http://purl.org/dc/elements/1.1/" xmlns:cc="http://creativecommons.org/ns#" xmlns:rdf="http://www.w3.org/1999/02/22-rdf-syntax-ns#" xmlns:svg="http://www.w3.org/2000/svg" xmlns="http://www.w3.org/2000/svg" xmlns:sodipodi="http://sodipodi.sourceforge.net/DTD/sodipodi-0.dtd" xmlns:inkscape="http://www.inkscape.org/namespaces/inkscape" viewBox="0 0 16.933333 21.1666675" version="1.1" x="0px" y="0px"><g><path fill="#ffffff" transform="scale(0.26458333)" d="M 53.457031 7.3886719 C 52.291063 7.3186879 51.100412 7.6020082 50.462891 8.5703125 C 50.429771 8.6096095 50.399737 8.6513995 50.373047 8.6953125 C 50.370447 8.6997825 50.369787 8.7064645 50.367188 8.7109375 C 42.857647 21.720649 33.257625 40.344887 27.910156 51.134766 C 27.415395 51.991732 27.573797 53.00004 28.007812 53.806641 C 28.077592 53.936319 28.16573 54.059346 28.25 54.183594 L 3.9121094 54.183594 C 3.3567697 54.181421 2.90603 54.63216 2.9082031 55.1875 C 2.9103531 55.739786 3.3598229 56.185755 3.9121094 56.183594 L 30.746094 56.183594 C 31.459715 56.489628 32.189776 56.640014 32.886719 56.619141 C 33.800023 56.591781 34.744413 56.223585 35.240234 55.371094 C 35.240779 55.370274 35.247547 55.37191 35.248047 55.371094 C 41.911373 45.356123 53.21993 27.758847 60.732422 14.753906 C 60.749032 14.731136 60.764677 14.707674 60.779297 14.683594 C 61.331692 13.556666 60.870577 12.204091 60.355469 11.371094 C 59.685991 10.357093 58.642818 9.4122071 57.330078 8.6542969 C 56.017339 7.896386 54.669931 7.4614742 53.457031 7.3886719 z " style="color:#000000;font-style:normal;font-variant:normal;font-weight:normal;font-stretch:normal;font-size:medium;line-height:normal;font-family:sans-serif;font-variant-ligatures:normal;font-variant-position:normal;font-variant-caps:normal;font-variant-numeric:normal;font-variant-alternates:normal;font-variant-east-asian:normal;font-feature-settings:normal;font-variation-settings:normal;text-indent:0;text-align:start;text-decoration:none;text-decoration-line:none;text-decoration-style:solid;text-decoration-color:#000000;letter-spacing:normal;word-spacing:normal;text-transform:none;writing-mode:lr-tb;direction:ltr;text-orientation:mixed;dominant-baseline:auto;baseline-shift:baseline;text-anchor:start;white-space:normal;shape-padding:0;shape-margin:0;inline-size:0;clip-rule:nonzero;display:inline;overflow:visible;visibility:visible;opacity:1;isolation:auto;mix-blend-mode:normal;color-interpolation:sRGB;color-interpolation-filters:linearRGB;solid-color:#000000;solid-opacity:1;vector-effect:none;fill:#000000;fill-opacity:1;fill-rule:nonzero;stroke:none;stroke-width:2;stroke-linecap:round;stroke-linejoin:round;stroke-miterlimit:4;stroke-dasharray:none;stroke-dashoffset:0;stroke-opacity:1;color-rendering:auto;image-rendering:auto;shape-rendering:auto;text-rendering:auto;enable-background:accumulate;stop-color:#000000;stop-opacity:1"/></g></svg>